<svg width="0" height="0" class="hidden">
  <symbol xmlns="http://www.w3.org/2000/svg" viewBox="0 0 80 80" id="whatsapp">
    <path fill="#f2faff" d="M7.904 58.665l-.104-.181a37.315 37.315 0 01-4.983-18.66C2.826 19.244 19.577 2.5 40.157 2.5c9.983.003 19.364 3.891 26.413 10.946C73.618 20.5 77.5 29.879 77.5 39.855c-.01 20.583-16.76 37.328-37.34 37.328a37.423 37.423 0 01-17.861-4.543l-.174-.096-19.414 5.092 5.193-18.971z"></path>
    <path fill="#788b9c" d="M40.157 3c9.85.003 19.105 3.838 26.059 10.799C73.17 20.76 77 30.013 77 39.855c-.009 20.307-16.536 36.828-36.855 36.828a36.902 36.902 0 01-17.606-4.482l-.349-.19-.384.101-18.384 4.82 4.91-17.933.11-.403-.209-.362a36.81 36.81 0 01-4.917-18.41C3.326 19.52 19.852 3 40.157 3m0-1C19.302 2 2.326 18.969 2.317 39.824a37.728 37.728 0 005.05 18.911L2 78.339l20.06-5.26a37.812 37.812 0 0018.084 4.604h.016c20.855 0 37.831-16.969 37.84-37.827 0-10.108-3.933-19.613-11.077-26.764C59.78 5.942 50.28 2.003 40.157 2z"></path>
    <path fill="#79ba7e" d="M39.99 70a30.038 30.038 0 01-14.332-3.646l-2.867-1.564-3.159.828-6.482 1.699 1.659-6.061.907-3.312-1.718-2.974A29.96 29.96 0 0110 39.986C10.007 23.453 23.464 10.002 39.997 10c8.022.003 15.558 3.126 21.221 8.793C66.881 24.461 70 31.998 70 40.011 69.992 56.547 56.535 70 39.99 70z"></path>
    <path fill="#fff" d="M56.561 47.376c-.9-.449-5.321-2.626-6.143-2.924-.825-.301-1.424-.449-2.023.449-.599.9-2.322 2.924-2.845 3.523-.524.599-1.048.674-1.948.226-.9-.449-3.797-1.4-7.23-4.462-2.674-2.382-4.478-5.327-5.001-6.227-.524-.9-.057-1.385.394-1.834.403-.403.9-1.051 1.349-1.575.449-.524.599-.9.9-1.5.301-.599.151-1.126-.075-1.575-.226-.449-2.023-4.875-2.773-6.673-.729-1.752-1.472-1.515-2.023-1.542a34.903 34.903 0 00-1.722-.03c-.599 0-1.575.226-2.397 1.126-.822.9-3.147 3.074-3.147 7.498s3.222 8.699 3.671 9.298c.449.599 6.338 9.678 15.36 13.571a52.792 52.792 0 005.125 1.894c2.153.684 4.113.587 5.664.355 1.728-.259 5.321-2.174 6.067-4.273.75-2.099.75-3.899.524-4.273-.228-.377-.827-.603-1.727-1.052z"></path>
  </symbol>
  <symbol xmlns="http://www.w3.org/2000/svg" viewBox="0 0 112.196 112.196" id="facebook">
    <circle cx="56.098" cy="56.098" r="56.098" fill="#3b5998"></circle>
    <path d="M70.201 58.294h-10.01v36.672H45.025V58.294h-7.213V45.406h7.213v-8.34c0-5.964 2.833-15.303 15.301-15.303l11.234.047v12.51h-8.151c-1.337 0-3.217.668-3.217 3.513v7.585h11.334l-1.325 12.876z" fill="#fff"></path>
  </symbol>
  <symbol xmlns="http://www.w3.org/2000/svg" viewBox="0 0 291.319 291.319" id="twitter">
    <path d="M145.659 0c80.45 0 145.66 65.219 145.66 145.66 0 80.45-65.21 145.659-145.66 145.659S0 226.109 0 145.66C0 65.219 65.21 0 145.659 0z" fill="#26a6d1"></path>
    <path d="M236.724 98.129c-6.363 2.749-13.21 4.597-20.392 5.435 7.338-4.27 12.964-11.016 15.613-19.072a71.965 71.965 0 01-22.55 8.366c-6.473-6.691-15.695-10.87-25.909-10.87-19.591 0-35.486 15.413-35.486 34.439 0 2.704.31 5.335.919 7.857-29.496-1.438-55.66-15.158-73.157-35.996a33.46 33.46 0 00-4.807 17.315c0 11.944 6.263 22.504 15.786 28.668-5.826-.182-11.289-1.721-16.086-4.315v.437c0 16.696 12.235 30.616 28.476 33.784a36.707 36.707 0 01-9.35 1.211c-2.285 0-4.506-.209-6.673-.619 4.515 13.692 17.625 23.651 33.165 23.925-12.153 9.249-27.457 14.748-44.089 14.748-2.868 0-5.69-.164-8.476-.482 15.722 9.777 34.367 15.485 54.422 15.485 65.292 0 100.997-52.51 100.997-98.029l-.1-4.461a70.838 70.838 0 0017.697-17.826z" fill="#fff"></path>
  </symbol>
</svg>